<mxfile host="app.diagrams.net" modified="2021-03-16T17:16:40.126Z" agent="5.0 (Windows NT 10.0; Win64; x64) AppleWebKit/537.36 (KHTML, like Gecko) Chrome/89.0.4389.72 Safari/537.36 Edg/89.0.774.45" etag="kC5eXZmux3giGuJjCAVY" version="14.4.7" type="github">
  <diagram id="6zn62Z9xgfO-b7laPYS4" name="Page-1">
    <mxGraphModel dx="1422" dy="794" grid="1" gridSize="10" guides="1" tooltips="1" connect="1" arrows="1" fold="1" page="1" pageScale="1" pageWidth="850" pageHeight="1100" math="0" shadow="0">
      <root>
        <mxCell id="0" />
        <mxCell id="1" parent="0" />
        <mxCell id="Ss0FilEweHv9kZM79R0a-1" value="&lt;font style=&quot;font-size: 22px&quot;&gt;Player&lt;/font&gt;" style="shape=umlActor;verticalLabelPosition=bottom;verticalAlign=top;html=1;outlineConnect=0;" vertex="1" parent="1">
          <mxGeometry x="40" y="150" width="30" height="60" as="geometry" />
        </mxCell>
        <mxCell id="Ss0FilEweHv9kZM79R0a-2" value="&lt;font style=&quot;font-size: 22px&quot;&gt;Host&lt;/font&gt;" style="shape=umlActor;verticalLabelPosition=bottom;verticalAlign=top;html=1;outlineConnect=0;" vertex="1" parent="1">
          <mxGeometry x="40" y="540" width="30" height="60" as="geometry" />
        </mxCell>
        <mxCell id="Ss0FilEweHv9kZM79R0a-4" value="" style="whiteSpace=wrap;html=1;aspect=fixed;" vertex="1" parent="1">
          <mxGeometry x="160" y="30" width="620" height="620" as="geometry" />
        </mxCell>
        <mxCell id="Ss0FilEweHv9kZM79R0a-9" value="&lt;font style=&quot;font-size: 20px&quot;&gt;Start Game&lt;/font&gt;" style="ellipse;whiteSpace=wrap;html=1;" vertex="1" parent="1">
          <mxGeometry x="200" y="590" width="120" height="40" as="geometry" />
        </mxCell>
        <mxCell id="Ss0FilEweHv9kZM79R0a-11" value="&lt;font style=&quot;font-size: 20px&quot;&gt;Make Suggestion&lt;/font&gt;" style="ellipse;whiteSpace=wrap;html=1;" vertex="1" parent="1">
          <mxGeometry x="300" y="370" width="120" height="70" as="geometry" />
        </mxCell>
        <mxCell id="Ss0FilEweHv9kZM79R0a-12" value="&lt;span style=&quot;text-align: left&quot;&gt;&lt;font style=&quot;font-size: 20px&quot;&gt;Make Accusation&lt;/font&gt;&lt;/span&gt;" style="ellipse;whiteSpace=wrap;html=1;" vertex="1" parent="1">
          <mxGeometry x="300" y="470" width="130" height="70" as="geometry" />
        </mxCell>
        <mxCell id="Ss0FilEweHv9kZM79R0a-13" value="" style="endArrow=classic;html=1;exitX=0.5;exitY=0.5;exitDx=0;exitDy=0;exitPerimeter=0;" edge="1" parent="1" source="Ss0FilEweHv9kZM79R0a-2" target="Ss0FilEweHv9kZM79R0a-9">
          <mxGeometry width="50" height="50" relative="1" as="geometry">
            <mxPoint x="400" y="530" as="sourcePoint" />
            <mxPoint x="450" y="480" as="targetPoint" />
          </mxGeometry>
        </mxCell>
        <mxCell id="Ss0FilEweHv9kZM79R0a-14" value="" style="endArrow=classic;html=1;exitX=0.5;exitY=0.5;exitDx=0;exitDy=0;exitPerimeter=0;entryX=0;entryY=0.5;entryDx=0;entryDy=0;" edge="1" parent="1" source="Ss0FilEweHv9kZM79R0a-1" target="Ss0FilEweHv9kZM79R0a-20">
          <mxGeometry width="50" height="50" relative="1" as="geometry">
            <mxPoint x="400" y="530" as="sourcePoint" />
            <mxPoint x="200" y="120" as="targetPoint" />
          </mxGeometry>
        </mxCell>
        <mxCell id="Ss0FilEweHv9kZM79R0a-15" value="" style="endArrow=classic;html=1;exitX=0.5;exitY=0.5;exitDx=0;exitDy=0;exitPerimeter=0;entryX=0;entryY=0.5;entryDx=0;entryDy=0;" edge="1" parent="1" source="Ss0FilEweHv9kZM79R0a-1" target="Ss0FilEweHv9kZM79R0a-11">
          <mxGeometry width="50" height="50" relative="1" as="geometry">
            <mxPoint x="85" y="190" as="sourcePoint" />
            <mxPoint x="210" y="170" as="targetPoint" />
          </mxGeometry>
        </mxCell>
        <mxCell id="Ss0FilEweHv9kZM79R0a-16" value="" style="endArrow=classic;html=1;exitX=0.5;exitY=0.5;exitDx=0;exitDy=0;exitPerimeter=0;entryX=0;entryY=0;entryDx=0;entryDy=0;" edge="1" parent="1" source="Ss0FilEweHv9kZM79R0a-1" target="Ss0FilEweHv9kZM79R0a-12">
          <mxGeometry width="50" height="50" relative="1" as="geometry">
            <mxPoint x="85" y="190" as="sourcePoint" />
            <mxPoint x="210" y="290" as="targetPoint" />
          </mxGeometry>
        </mxCell>
        <mxCell id="Ss0FilEweHv9kZM79R0a-20" value="&lt;font style=&quot;font-size: 20px&quot;&gt;Move to/from&lt;br&gt;Room&lt;br&gt;&lt;/font&gt;" style="ellipse;whiteSpace=wrap;html=1;" vertex="1" parent="1">
          <mxGeometry x="400" y="40" width="140" height="80" as="geometry" />
        </mxCell>
        <mxCell id="Ss0FilEweHv9kZM79R0a-21" value="&lt;font style=&quot;font-size: 20px&quot;&gt;Move to/from&lt;br&gt;Hallway&lt;br&gt;&lt;/font&gt;" style="ellipse;whiteSpace=wrap;html=1;" vertex="1" parent="1">
          <mxGeometry x="470" y="170" width="160" height="70" as="geometry" />
        </mxCell>
        <mxCell id="Ss0FilEweHv9kZM79R0a-24" value="&lt;font style=&quot;font-size: 20px&quot;&gt;Move to/from&lt;br&gt;Secret Room&lt;br&gt;&lt;/font&gt;" style="ellipse;whiteSpace=wrap;html=1;" vertex="1" parent="1">
          <mxGeometry x="565" y="70" width="145" height="80" as="geometry" />
        </mxCell>
        <mxCell id="Ss0FilEweHv9kZM79R0a-26" value="" style="endArrow=classic;html=1;exitX=0.5;exitY=0;exitDx=0;exitDy=0;exitPerimeter=0;" edge="1" parent="1" source="Ss0FilEweHv9kZM79R0a-2">
          <mxGeometry width="50" height="50" relative="1" as="geometry">
            <mxPoint x="50" y="520" as="sourcePoint" />
            <mxPoint x="55" y="250" as="targetPoint" />
          </mxGeometry>
        </mxCell>
        <mxCell id="Ss0FilEweHv9kZM79R0a-28" value="&lt;font style=&quot;font-size: 20px&quot;&gt;Respond&lt;br&gt;to Suggestion&lt;br&gt;&lt;/font&gt;" style="ellipse;whiteSpace=wrap;html=1;" vertex="1" parent="1">
          <mxGeometry x="540" y="380" width="160" height="60" as="geometry" />
        </mxCell>
        <mxCell id="Ss0FilEweHv9kZM79R0a-30" value="" style="endArrow=classic;html=1;exitX=0.5;exitY=0.5;exitDx=0;exitDy=0;exitPerimeter=0;entryX=0;entryY=0;entryDx=0;entryDy=0;" edge="1" parent="1" source="Ss0FilEweHv9kZM79R0a-1" target="Ss0FilEweHv9kZM79R0a-31">
          <mxGeometry width="50" height="50" relative="1" as="geometry">
            <mxPoint x="400" y="400" as="sourcePoint" />
            <mxPoint x="450" y="350" as="targetPoint" />
          </mxGeometry>
        </mxCell>
        <mxCell id="Ss0FilEweHv9kZM79R0a-31" value="&lt;font style=&quot;font-size: 20px&quot;&gt;Get&lt;br&gt;Cards&lt;br&gt;&lt;/font&gt;" style="ellipse;whiteSpace=wrap;html=1;" vertex="1" parent="1">
          <mxGeometry x="290" y="290" width="130" height="50" as="geometry" />
        </mxCell>
        <mxCell id="Ss0FilEweHv9kZM79R0a-34" value="&lt;font style=&quot;font-size: 20px&quot;&gt;Identify as&lt;br&gt;Suspect&lt;br&gt;&lt;/font&gt;" style="ellipse;whiteSpace=wrap;html=1;" vertex="1" parent="1">
          <mxGeometry x="290" y="200" width="120" height="70" as="geometry" />
        </mxCell>
        <mxCell id="Ss0FilEweHv9kZM79R0a-35" value="" style="endArrow=classic;html=1;exitX=0.5;exitY=0.5;exitDx=0;exitDy=0;exitPerimeter=0;entryX=0;entryY=0.5;entryDx=0;entryDy=0;" edge="1" parent="1" source="Ss0FilEweHv9kZM79R0a-1" target="Ss0FilEweHv9kZM79R0a-34">
          <mxGeometry width="50" height="50" relative="1" as="geometry">
            <mxPoint x="65" y="190" as="sourcePoint" />
            <mxPoint x="210" y="130" as="targetPoint" />
          </mxGeometry>
        </mxCell>
        <mxCell id="Ss0FilEweHv9kZM79R0a-36" value="&lt;font style=&quot;font-size: 20px&quot;&gt;Connect&lt;br&gt;to Server&lt;br&gt;&lt;/font&gt;" style="ellipse;whiteSpace=wrap;html=1;" vertex="1" parent="1">
          <mxGeometry x="185" y="40" width="150" height="50" as="geometry" />
        </mxCell>
        <mxCell id="Ss0FilEweHv9kZM79R0a-37" value="" style="endArrow=classic;html=1;exitX=0.5;exitY=0.5;exitDx=0;exitDy=0;exitPerimeter=0;entryX=0;entryY=0.5;entryDx=0;entryDy=0;" edge="1" parent="1" source="Ss0FilEweHv9kZM79R0a-1" target="Ss0FilEweHv9kZM79R0a-36">
          <mxGeometry width="50" height="50" relative="1" as="geometry">
            <mxPoint x="65" y="190" as="sourcePoint" />
            <mxPoint x="210" y="130" as="targetPoint" />
          </mxGeometry>
        </mxCell>
        <mxCell id="Ss0FilEweHv9kZM79R0a-38" value="&lt;font style=&quot;font-size: 20px&quot;&gt;Win&amp;nbsp;&lt;br&gt;Game&lt;br&gt;&lt;/font&gt;" style="ellipse;whiteSpace=wrap;html=1;" vertex="1" parent="1">
          <mxGeometry x="570" y="470" width="120" height="60" as="geometry" />
        </mxCell>
        <mxCell id="Ss0FilEweHv9kZM79R0a-39" value="&lt;font style=&quot;font-size: 20px&quot;&gt;Lose&amp;nbsp;&lt;br&gt;Game&lt;br&gt;&lt;/font&gt;" style="ellipse;whiteSpace=wrap;html=1;" vertex="1" parent="1">
          <mxGeometry x="570" y="560" width="120" height="60" as="geometry" />
        </mxCell>
        <mxCell id="Ss0FilEweHv9kZM79R0a-44" value="&lt;font style=&quot;font-size: 20px&quot;&gt;Lose Turn&lt;/font&gt;" style="ellipse;whiteSpace=wrap;html=1;" vertex="1" parent="1">
          <mxGeometry x="170" y="460" width="120" height="40" as="geometry" />
        </mxCell>
        <mxCell id="Ss0FilEweHv9kZM79R0a-45" value="" style="endArrow=classic;html=1;exitX=0.5;exitY=0.5;exitDx=0;exitDy=0;exitPerimeter=0;entryX=0.008;entryY=0.663;entryDx=0;entryDy=0;entryPerimeter=0;" edge="1" parent="1" source="Ss0FilEweHv9kZM79R0a-1" target="Ss0FilEweHv9kZM79R0a-24">
          <mxGeometry width="50" height="50" relative="1" as="geometry">
            <mxPoint x="175" y="130" as="sourcePoint" />
            <mxPoint x="410" y="185" as="targetPoint" />
          </mxGeometry>
        </mxCell>
        <mxCell id="Ss0FilEweHv9kZM79R0a-46" value="" style="endArrow=classic;html=1;exitX=0.5;exitY=0.5;exitDx=0;exitDy=0;exitPerimeter=0;" edge="1" parent="1" source="Ss0FilEweHv9kZM79R0a-1" target="Ss0FilEweHv9kZM79R0a-21">
          <mxGeometry width="50" height="50" relative="1" as="geometry">
            <mxPoint x="65" y="190" as="sourcePoint" />
            <mxPoint x="531.04" y="133.03999999999996" as="targetPoint" />
          </mxGeometry>
        </mxCell>
        <mxCell id="Ss0FilEweHv9kZM79R0a-47" value="" style="endArrow=classic;html=1;exitX=0.5;exitY=0.5;exitDx=0;exitDy=0;exitPerimeter=0;entryX=0.5;entryY=0;entryDx=0;entryDy=0;" edge="1" parent="1" source="Ss0FilEweHv9kZM79R0a-1" target="Ss0FilEweHv9kZM79R0a-44">
          <mxGeometry width="50" height="50" relative="1" as="geometry">
            <mxPoint x="65" y="190" as="sourcePoint" />
            <mxPoint x="300" y="245" as="targetPoint" />
          </mxGeometry>
        </mxCell>
        <mxCell id="Ss0FilEweHv9kZM79R0a-48" value="&lt;font style=&quot;font-size: 20px&quot;&gt;CLUE-LESS&lt;/font&gt;" style="text;html=1;strokeColor=none;fillColor=none;align=center;verticalAlign=middle;whiteSpace=wrap;rounded=0;" vertex="1" parent="1">
          <mxGeometry x="650" y="30" width="130" height="20" as="geometry" />
        </mxCell>
        <mxCell id="Ss0FilEweHv9kZM79R0a-49" value="" style="endArrow=classic;html=1;entryX=0;entryY=0;entryDx=0;entryDy=0;exitX=1;exitY=0.5;exitDx=0;exitDy=0;" edge="1" parent="1" source="Ss0FilEweHv9kZM79R0a-12" target="Ss0FilEweHv9kZM79R0a-39">
          <mxGeometry width="50" height="50" relative="1" as="geometry">
            <mxPoint x="400" y="330" as="sourcePoint" />
            <mxPoint x="450" y="280" as="targetPoint" />
          </mxGeometry>
        </mxCell>
        <mxCell id="Ss0FilEweHv9kZM79R0a-50" value="" style="endArrow=classic;html=1;entryX=0;entryY=0.5;entryDx=0;entryDy=0;exitX=1;exitY=0.5;exitDx=0;exitDy=0;" edge="1" parent="1" source="Ss0FilEweHv9kZM79R0a-12" target="Ss0FilEweHv9kZM79R0a-38">
          <mxGeometry width="50" height="50" relative="1" as="geometry">
            <mxPoint x="440" y="515" as="sourcePoint" />
            <mxPoint x="597.573593128807" y="578.7867965644036" as="targetPoint" />
          </mxGeometry>
        </mxCell>
        <mxCell id="Ss0FilEweHv9kZM79R0a-51" value="" style="endArrow=classic;html=1;entryX=0;entryY=0.5;entryDx=0;entryDy=0;exitX=1;exitY=0.5;exitDx=0;exitDy=0;" edge="1" parent="1" source="Ss0FilEweHv9kZM79R0a-11" target="Ss0FilEweHv9kZM79R0a-28">
          <mxGeometry width="50" height="50" relative="1" as="geometry">
            <mxPoint x="430" y="375" as="sourcePoint" />
            <mxPoint x="570" y="370" as="targetPoint" />
          </mxGeometry>
        </mxCell>
      </root>
    </mxGraphModel>
  </diagram>
</mxfile>
